<?xml version="1.0" encoding="iso-8859-1"?>
<!-- Generator: Adobe Illustrator 17.1.0, SVG Export Plug-In . SVG Version: 6.00 Build 0)  -->
<!DOCTYPE svg PUBLIC "-//W3C//DTD SVG 1.1//EN" "http://www.w3.org/Graphics/SVG/1.1/DTD/svg11.dtd">
<svg xmlns="http://www.w3.org/2000/svg" xmlns:xlink="http://www.w3.org/1999/xlink" version="1.1" id="Capa_1" x="0px" y="0px" viewBox="0 0 368.299 368.299" style="enable-background:new 0 0 368.299 368.299;" xml:space="preserve" width="512px" height="512px">
<g>
	<path d="M206.559,325.04c-2.63,1.669-7.205,4.967,3.295,4.967h90.591c11.028,0,20-8.972,20-20V20c0-11.028-8.972-20-20-20H126.763   c-11.028,0-20,8.972-20,20v160.004c0,7.667,3.449,7.64,5.095,8.112c1.778,0.506,6.278,1.196,10.248,1.804   c2.304,0.353,6.891,0.417,6.891-4.916V42.445c0-2.75,2.25-5,5-5H293.21c2.75,0,5,2.25,5,5v220.821c0,2.75-2.25,5-5,5h-45.107   c-11.25,0-9.844,2.979-9.036,4.63s1.438,3.399,1.87,5.222c1.766,7.456,0.077,15.167-4.753,21.714   C230.895,306.997,220.602,316.13,206.559,325.04z M233.471,19.973c0,2.761-2.238,5-5,5h-29.734c-2.762,0-5-2.239-5-5   c0-2.761,2.238-5,5-5h29.734C231.232,14.973,233.471,17.212,233.471,19.973z" fill="#FFFFFF"/>
	<path d="M48.997,313.26l12.51-24.437l-1.205-18.077c-0.54-7.832,1.06-15.682,4.627-22.699l21.434-42.163   c2.618-4.925,10.708-10.199,18.578-10.199c1.592,0,3.136,0.211,4.583,0.626c2.291,0.652,6.865,1.354,11.288,2.032   c5.534,0.848,11.257,1.726,15.175,2.832c2.022,0.566,6.434,1.287,10.703,1.984c5.654,0.924,11.502,1.88,15.332,2.959   c3.746,1.06,7.098,2.81,9.725,4.99c8.673-13.07,29.469-44.38,32.639-49.029l-0.023-0.016c2.813-4.303,7.127-6.673,12.149-6.673   c5.901,0,11.753,3.33,14.907,8.486c2.787,4.555,2.997,9.885,0.58,14.613l-48.858,96.235c1.584,0.441,3.877,0.892,6.63,0.892   c4.188,0,8.251-1.048,12.084-3.12l1.091-0.587c1.377-0.741,2.646-1.424,3.842-2.076c3.096-1.667,6.289-2.511,9.492-2.511   c6.434,0,12.199,3.503,15.046,9.142c2.929,5.8,2.182,12.644-1.997,18.307c-7.85,10.637-33.168,30.933-71.142,43.955L146,362.586   c-1.791,3.523-5.368,5.712-9.334,5.712c0,0,0,0-0.001,0c-1.631,0-3.264-0.391-4.72-1.131l-78.374-39.84   c-2.483-1.263-4.329-3.422-5.195-6.081C47.51,318.588,47.727,315.756,48.997,313.26z" fill="#FFFFFF"/>
	<path d="M192.441,135.745c-1.378,1.76-3.456,2.77-5.701,2.77c-1.461,0-2.909-0.439-4.188-1.27l-15.436-10.021   c-1.789-1.164-3.018-2.954-3.463-5.043c-0.445-2.093-0.048-4.233,1.114-6.021l9.325-14.362c1.423-2.19,3.771-3.497,6.284-3.497   c3.435,0,6.314,2.316,7.166,5.766l1.833,7.431c13.551,0.733,28.447,4.293,42.648,10.276c13.234,5.577,25.353,12.996,35.048,21.453   c2.913,2.542,3.215,6.963,0.673,9.877c-1.384,1.587-3.325,2.398-5.277,2.398c-1.632,0-3.272-0.568-4.599-1.725   c-8.586-7.49-19.403-14.095-31.282-19.101c-11.25-4.741-22.896-7.781-33.682-8.872l0.855,3.466   C194.331,131.585,193.85,133.945,192.441,135.745z" fill="#FFFFFF"/>
</g>
<g>
</g>
<g>
</g>
<g>
</g>
<g>
</g>
<g>
</g>
<g>
</g>
<g>
</g>
<g>
</g>
<g>
</g>
<g>
</g>
<g>
</g>
<g>
</g>
<g>
</g>
<g>
</g>
<g>
</g>
</svg>
