<?xml version="1.0" encoding="UTF-8" standalone="no"?>
<!-- Generator: Adobe Illustrator 19.0.0, SVG Export Plug-In . SVG Version: 6.00 Build 0)  -->

<svg
   xmlns:dc="http://purl.org/dc/elements/1.1/"
   xmlns:cc="http://creativecommons.org/ns#"
   xmlns:rdf="http://www.w3.org/1999/02/22-rdf-syntax-ns#"
   xmlns:svg="http://www.w3.org/2000/svg"
   xmlns="http://www.w3.org/2000/svg"
   xmlns:sodipodi="http://sodipodi.sourceforge.net/DTD/sodipodi-0.dtd"
   xmlns:inkscape="http://www.inkscape.org/namespaces/inkscape"
   version="1.1"
   id="Capa_1"
   x="0px"
   y="0px"
   viewBox="0 0 294.843 294.843"
   style="enable-background:new 0 0 294.843 294.843;"
   xml:space="preserve"
   width="512px"
   height="512px"
   inkscape:version="0.91 r13725"
   sodipodi:docname="circle-2sm.svg"><metadata
     id="metadata3452"><rdf:RDF><cc:Work
         rdf:about=""><dc:format>image/svg+xml</dc:format><dc:type
           rdf:resource="http://purl.org/dc/dcmitype/StillImage" /><dc:title></dc:title></cc:Work></rdf:RDF></metadata><defs
     id="defs3450" /><sodipodi:namedview
     pagecolor="#ffffff"
     bordercolor="#666666"
     borderopacity="1"
     objecttolerance="10"
     gridtolerance="10"
     guidetolerance="10"
     inkscape:pageopacity="0"
     inkscape:pageshadow="2"
     inkscape:window-width="1366"
     inkscape:window-height="716"
     id="namedview3448"
     showgrid="false"
     inkscape:zoom="0.4609375"
     inkscape:cx="256"
     inkscape:cy="256"
     inkscape:window-x="-8"
     inkscape:window-y="-8"
     inkscape:window-maximized="1"
     inkscape:current-layer="Capa_1" /><g
     id="g3408"><path
       d="M 147.421,0 C 66.133,0 0,66.133 0,147.421 c 0,40.968 17.259,80.425 47.351,108.255 2.433,2.25 6.229,2.101 8.479,-0.331 2.25,-2.434 2.102,-6.229 -0.332,-8.479 C 27.854,221.3 12,185.054 12,147.421 12,72.75 72.75,12 147.421,12 c 74.671,0 135.421,60.75 135.421,135.421 0,74.671 -60.75,135.421 -135.421,135.421 -3.313,0 -6,2.687 -6,6 0,3.313 2.687,6 6,6 81.289,0 147.421,-66.133 147.421,-147.421 C 294.842,66.133 228.71,0 147.421,0 Z"
       id="path3410"
       inkscape:connector-curvature="0"
       style="fill:#ffffff" /><path
       d="m 84.185,90.185 126.473,0 c 3.313,0 6,-2.687 6,-6 0,-3.313 -2.687,-6 -6,-6 l -126.473,0 c -3.313,0 -6,2.687 -6,6 0,3.313 2.687,6 6,6 z"
       id="path3412"
       inkscape:connector-curvature="0"
       style="fill:#ffffff" /><path
       d="m 84.185,153.421 126.473,0 c 3.313,0 6,-2.687 6,-6 0,-3.313 -2.687,-6 -6,-6 l -126.473,0 c -3.313,0 -6,2.687 -6,6 0,3.313 2.687,6 6,6 z"
       id="path3414"
       inkscape:connector-curvature="0"
       style="fill:#ffffff" /><path
       d="m 216.658,210.658 c 0,-3.313 -2.687,-6 -6,-6 l -126.473,0 c -3.313,0 -6,2.687 -6,6 0,3.313 2.687,6 6,6 l 126.473,0 c 3.313,0 6,-2.687 6,-6 z"
       id="path3416"
       inkscape:connector-curvature="0"
       style="fill:#ffffff" /></g><g
     id="g3418" /><g
     id="g3420" /><g
     id="g3422" /><g
     id="g3424" /><g
     id="g3426" /><g
     id="g3428" /><g
     id="g3430" /><g
     id="g3432" /><g
     id="g3434" /><g
     id="g3436" /><g
     id="g3438" /><g
     id="g3440" /><g
     id="g3442" /><g
     id="g3444" /><g
     id="g3446" /></svg>