<?xml version="1.0" encoding="utf-8"?>
<!-- Generator: Adobe Illustrator 22.0.1, SVG Export Plug-In . SVG Version: 6.00 Build 0)  -->
<svg version="1.1" id="Layer_1" xmlns="http://www.w3.org/2000/svg" xmlns:xlink="http://www.w3.org/1999/xlink" x="0px" y="0px"
	 viewBox="0 0 130 130" style="enable-background:new 0 0 130 130;" xml:space="preserve">
<g id="Layer_1_1_">
</g>
<g id="Layer_2_1_">
	<g>
		<path fill="#000000" d="M103.5,59.4c-1.9-1.9-4.9-3.8-8.6-5.4c-4.1-1.8-9.2-3.2-14.9-4.1c1.2,3.6,2.3,7.5,3.1,11.6c1.1,5.6,1.6,11,1.7,15.9
			c-0.5,0.1-0.9,0.2-1.4,0.3c-1,0.2-2,0.4-3.1,0.6c0-0.1,0-0.3,0-0.4c0-4.8-0.5-10.1-1.6-15.5c-0.9-4.7-2.2-9.1-3.7-13.1
			c-3.2-0.3-6.5-0.5-10-0.5l-0.9-4.5c0.3,0,0.6,0,0.9,0c2.7,0,5.4,0.1,8,0.3c-2.1-4.4-4.4-8.1-6.8-10.6c-1.7-1.8-3.4-3-4.8-3.6
			c-0.7-0.3-1.3-0.4-1.9-0.5l6.9,34.9l2.9,14.7c-0.9,0-1.8,0.1-2.7,0.1l-2.8-14.2l-6.9-34.9c-0.6,0.3-1.2,0.7-1.8,1.4
			c-1,1-1.9,2.6-2.7,4.5c-1.6,3.9-2.5,9.5-2.5,15.9c0,4.8,0.5,10.1,1.6,15.5l0,0c0.9,4.7,2.2,9.1,3.7,13.1c3.2,0.3,6.5,0.5,10,0.5
			c7.7,0,14.9-0.9,21.1-2.4c6.2-1.5,11.3-3.7,14.8-6.1c2.3-1.6,3.9-3.4,4.7-5c0.4-0.9,0.7-1.8,0.7-2.8c0-0.9-0.2-1.8-0.7-2.8
			C105.1,61.3,104.4,60.3,103.5,59.4z M51.6,49.6c0.1-1.6,0.2-3.1,0.4-4.6c1.9-0.2,3.8-0.4,5.8-0.6l0.9,4.5
			C56.2,49.1,53.8,49.3,51.6,49.6z"/>
		<path fill="#000000" d="M65,8.9C34,8.9,8.9,34,8.9,65c0,31,25.1,56.1,56.1,56.1c31,0,56.1-25.1,56.1-56.1C121.1,34,96,8.9,65,8.9z M106.7,73.8
			c-2.5,2.5-5.9,4.6-10,6.4c-8.2,3.5-19.4,5.6-31.6,5.6c-2.7,0-5.4-0.1-8-0.3c2.1,4.4,4.4,8.1,6.8,10.6c1.7,1.8,3.4,3,4.8,3.6
			c0.7,0.3,1.4,0.4,2,0.5l-2.5-12.6c0.9,0,1.8-0.1,2.7-0.1l2.4,12.2c0.6-0.3,1.2-0.7,1.8-1.3c1-1,1.9-2.6,2.7-4.5
			c0.8-2,1.4-4.4,1.9-7.2c1-0.1,2-0.3,3-0.5c0.6-0.1,1.1-0.2,1.6-0.3c-0.3,2.1-0.6,4.1-1.1,5.9c-1.1,4-2.6,7.3-4.9,9.7
			c-1.5,1.6-3.4,2.7-5.5,3.1l0,0c-0.6,0.1-1.2,0.2-1.8,0.2c-1.4,0-2.8-0.3-4.1-0.8c-1.3-0.5-2.6-1.3-3.8-2.3
			c-2.4-1.9-4.7-4.5-6.7-7.8c-1.7-2.6-3.2-5.6-4.6-8.9c-3.2-0.4-6.2-1-9-1.7c-6.6-1.6-12.2-3.9-16.3-6.8c-2.8-1.9-4.9-4.2-6.2-6.7
			c-0.7-1.5-1.1-3.1-1.1-4.7c0-1.6,0.4-3.2,1.1-4.7c0.7-1.5,1.7-2.8,3-4.1c2.5-2.5,5.9-4.6,10-6.4c3.1-1.3,6.5-2.4,10.3-3.3
			c-0.1,1.5-0.2,3.1-0.2,4.7c-6,1.5-11,3.6-14.4,6c-2.3,1.6-3.9,3.4-4.7,5c-0.4,0.9-0.7,1.8-0.7,2.8h0c0,0.9,0.2,1.8,0.7,2.8
			c0.5,0.9,1.1,1.9,2.1,2.9c1.9,1.9,4.9,3.8,8.6,5.4c4.1,1.8,9.2,3.2,14.9,4.1c-1.2-3.6-2.3-7.5-3.1-11.6
			c-1.1-5.7-1.7-11.3-1.7-16.4c0-5.1,0.5-9.8,1.6-13.8c1.1-4,2.6-7.3,4.9-9.7c1.5-1.6,3.4-2.7,5.5-3.1v0c0.6-0.1,1.2-0.2,1.8-0.2
			c1.4,0,2.8,0.3,4.1,0.8c1.3,0.5,2.6,1.3,3.8,2.3c2.4,1.9,4.7,4.5,6.7,7.8c1.7,2.6,3.2,5.6,4.6,8.9c3.2,0.4,6.2,1,9,1.7
			c6.6,1.6,12.2,3.9,16.3,6.8c2.8,1.9,4.9,4.2,6.1,6.7c0.7,1.5,1.1,3.1,1.1,4.7c0,1.6-0.4,3.2-1.1,4.7
			C108.9,71.2,107.9,72.6,106.7,73.8z"/>
	</g>
	<g>
		<path fill="#FFFFFF" d="M52,45c-0.2,1.4-0.3,3-0.4,4.6c2.3-0.3,4.6-0.6,7-0.7l-0.9-4.5C55.8,44.6,53.8,44.8,52,45z"/>
		<path fill="#FFFFFF" d="M109.6,60.3c-1.2-2.6-3.4-4.8-6.1-6.7c-4.1-2.9-9.7-5.2-16.3-6.8c-2.8-0.7-5.9-1.2-9-1.7
			c-1.4-3.3-2.9-6.3-4.6-8.9c-2.1-3.2-4.3-5.9-6.7-7.8c-1.2-1-2.5-1.7-3.8-2.3c-1.3-0.5-2.7-0.8-4.1-0.8c-0.6,0-1.2,0.1-1.8,0.2v0
			c-2.1,0.4-4,1.6-5.5,3.1c-2.3,2.4-3.8,5.7-4.9,9.7c-1.1,4-1.6,8.7-1.6,13.8c0,5.1,0.5,10.7,1.7,16.4c0.8,4.1,1.9,8,3.1,11.6
			c-5.7-0.9-10.8-2.3-14.9-4.1c-3.7-1.6-6.7-3.5-8.6-5.4c-1-1-1.7-1.9-2.1-2.9c-0.4-0.9-0.7-1.8-0.7-2.8h0c0-0.9,0.2-1.8,0.7-2.8
			c0.8-1.6,2.3-3.4,4.7-5c3.4-2.4,8.4-4.5,14.4-6c0-1.6,0.1-3.2,0.2-4.7c-3.8,0.9-7.2,2-10.3,3.3c-4.1,1.8-7.5,3.9-10,6.4
			c-1.2,1.3-2.3,2.6-3,4.1c-0.7,1.5-1.1,3.1-1.1,4.7c0,1.6,0.4,3.2,1.1,4.7c1.2,2.6,3.4,4.8,6.2,6.7c4.1,2.9,9.7,5.2,16.3,6.8
			c2.8,0.7,5.9,1.3,9,1.7c1.4,3.3,2.9,6.3,4.6,8.9c2.1,3.2,4.3,5.9,6.7,7.8c1.2,1,2.5,1.7,3.8,2.3c1.3,0.5,2.7,0.8,4.1,0.8
			c0.6,0,1.2-0.1,1.8-0.2l0,0c2.1-0.4,4-1.6,5.5-3.1c2.3-2.4,3.8-5.7,4.9-9.7c0.5-1.8,0.9-3.8,1.1-5.9c-0.5,0.1-1.1,0.2-1.6,0.3
			c-1,0.2-2,0.3-3,0.5c-0.4,2.7-1.1,5.2-1.9,7.2c-0.8,2-1.7,3.5-2.7,4.5c-0.6,0.6-1.2,1-1.8,1.3l-2.4-12.2c-0.9,0-1.8,0.1-2.7,0.1
			l2.5,12.6c-0.6,0-1.3-0.2-2-0.5c-1.5-0.6-3.2-1.8-4.8-3.6c-2.4-2.5-4.7-6.1-6.8-10.6c2.6,0.2,5.3,0.3,8,0.3
			c12.3,0,23.4-2.1,31.6-5.6c4.1-1.8,7.5-3.9,10-6.4c1.2-1.3,2.3-2.6,3-4.1c0.7-1.5,1.1-3.1,1.1-4.7
			C110.8,63.4,110.4,61.8,109.6,60.3z M105.6,67.8c-0.8,1.6-2.3,3.4-4.7,5c-3.5,2.5-8.6,4.6-14.8,6.1c-6.2,1.5-13.4,2.4-21.1,2.4
			c-3.4,0-6.8-0.2-10-0.5c-1.5-4-2.8-8.4-3.7-13.1l0,0c-1.1-5.5-1.6-10.7-1.6-15.5c0-6.4,0.9-12,2.5-15.9c0.8-2,1.7-3.5,2.7-4.5
			c0.6-0.6,1.2-1.1,1.8-1.4l6.9,34.9l2.8,14.2c0.9,0,1.8,0,2.7-0.1l-2.9-14.7l-6.9-34.9c0.6,0,1.3,0.2,1.9,0.5
			c1.5,0.6,3.2,1.8,4.8,3.6c2.4,2.5,4.7,6.1,6.8,10.6c-2.6-0.2-5.3-0.3-8-0.3c-0.3,0-0.6,0-0.9,0l0.9,4.5c3.4,0,6.8,0.2,10,0.5
			c1.5,4,2.8,8.4,3.7,13.1c1.1,5.5,1.6,10.7,1.6,15.5c0,0.2,0,0.3,0,0.4c1.1-0.2,2.1-0.4,3.1-0.6c0.5-0.1,0.9-0.2,1.4-0.3
			c0-5-0.6-10.4-1.7-15.9c-0.8-4.1-1.9-8-3.1-11.6c5.7,0.9,10.7,2.3,14.9,4.1c3.7,1.6,6.7,3.5,8.6,5.4c1,1,1.7,1.9,2.1,2.9
			c0.4,0.9,0.7,1.8,0.7,2.8C106.2,65.9,106,66.8,105.6,67.8z"/>
	</g>
</g>
</svg>
