<?xml version="1.0" encoding="utf-8"?>
<!-- Generator: Adobe Illustrator 22.0.1, SVG Export Plug-In . SVG Version: 6.00 Build 0)  -->
<svg version="1.1" id="Layer_1" xmlns="http://www.w3.org/2000/svg" xmlns:xlink="http://www.w3.org/1999/xlink" x="0px" y="0px"
	 viewBox="0 0 130 130" style="enable-background:new 0 0 130 130;" xml:space="preserve">
<g id="Layer_1_1_">
</g>
<g id="Layer_2_1_">
	<g>
		<path fill="#000000" d="M107.8,58.7c-2.1-2.1-5.4-4.2-9.6-6c-4.6-2-10.2-3.5-16.5-4.5c1.4,4,2.5,8.3,3.4,12.8c1.2,6.2,1.8,12.2,1.9,17.7
			c-0.5,0.1-1,0.2-1.6,0.3c-1.1,0.2-2.3,0.4-3.4,0.6c0-0.2,0-0.3,0-0.5c0-5.3-0.6-11.2-1.8-17.3c-1-5.2-2.4-10.1-4.1-14.5
			c-3.6-0.4-7.3-0.6-11.1-0.6l-1-5c0.3,0,0.7,0,1,0c3,0,6,0.1,8.9,0.4c-2.3-4.9-4.9-9-7.5-11.7c-1.9-2-3.7-3.3-5.4-4
			c-0.8-0.3-1.5-0.5-2.2-0.5l7.7,38.8L69.7,81c-1,0-2,0.1-3,0.1l-3.1-15.8l-7.7-38.7c-0.7,0.3-1.3,0.8-2,1.5c-1.1,1.2-2.2,2.9-3,5
			C49.1,37.5,48,43.6,48,50.8c0,5.3,0.6,11.2,1.8,17.2l0,0c1,5.2,2.4,10.1,4.1,14.5c3.6,0.4,7.3,0.6,11.1,0.6c8.6,0,16.6-1,23.5-2.7
			c6.9-1.7,12.6-4.1,16.4-6.8c2.6-1.8,4.3-3.7,5.2-5.6c0.5-1,0.7-2,0.7-3.1c0-1-0.2-2-0.7-3.1C109.6,60.9,108.8,59.8,107.8,58.7z
			 M50.1,47.9c0.1-1.8,0.2-3.5,0.4-5.1c2.1-0.3,4.2-0.5,6.4-0.6l1,4.9C55.2,47.3,52.6,47.6,50.1,47.9z"/>
		<path fill="#000000" d="M65,2.6C30.6,2.6,2.6,30.6,2.6,65c0,34.4,27.9,62.4,62.4,62.4c34.4,0,62.4-27.9,62.4-62.4C127.4,30.6,99.4,2.6,65,2.6z
			 M111.3,74.8c-2.8,2.8-6.6,5.1-11.2,7.1C91,85.8,78.6,88.1,65,88.1c-3,0-6-0.1-8.9-0.3c2.3,4.9,4.9,9,7.5,11.7
			c1.9,2,3.7,3.3,5.4,4c0.8,0.3,1.5,0.5,2.2,0.5l-2.8-14c1,0,2-0.1,3-0.1l2.7,13.5c0.7-0.3,1.3-0.8,2-1.5c1.1-1.2,2.2-2.9,3-5
			c0.9-2.2,1.6-4.9,2.1-8c1.1-0.2,2.3-0.3,3.3-0.5c0.6-0.1,1.2-0.2,1.8-0.4c-0.3,2.3-0.7,4.5-1.2,6.5c-1.2,4.4-2.9,8.1-5.4,10.8
			c-1.7,1.8-3.7,3-6.1,3.5l0,0c-0.7,0.1-1.3,0.2-2,0.2c-1.5,0-3.1-0.3-4.5-0.9c-1.5-0.6-2.9-1.4-4.2-2.5c-2.7-2.1-5.2-5-7.5-8.6
			c-1.8-2.9-3.6-6.2-5.1-9.9c-3.5-0.5-6.9-1.1-10-1.9C33,83.5,26.8,81,22.2,77.7c-3.1-2.2-5.4-4.6-6.8-7.5c-0.8-1.6-1.2-3.4-1.2-5.2
			c0-1.8,0.4-3.6,1.2-5.2c0.8-1.6,1.9-3.2,3.3-4.5c2.8-2.8,6.6-5.1,11.2-7.1c3.4-1.5,7.3-2.7,11.5-3.7c-0.1,1.7-0.2,3.4-0.3,5.2
			c-6.6,1.7-12.2,4-16,6.7c-2.6,1.8-4.3,3.7-5.2,5.6c-0.5,1-0.7,2-0.7,3.1h0c0,1,0.2,2,0.7,3.1c0.5,1,1.3,2.1,2.3,3.2
			c2.1,2.1,5.4,4.2,9.6,6c4.6,2,10.2,3.5,16.5,4.5c-1.4-4-2.5-8.3-3.4-12.8C43.6,62.6,43,56.4,43,50.8c0-5.7,0.6-10.9,1.8-15.3
			c1.2-4.4,2.9-8.1,5.4-10.8c1.7-1.8,3.7-3,6.1-3.5v0c0.7-0.1,1.3-0.2,2-0.2c1.5,0,3.1,0.3,4.5,0.9c1.5,0.6,2.9,1.4,4.2,2.5
			c2.7,2.1,5.2,5,7.5,8.6c1.8,2.9,3.6,6.2,5.1,9.9c3.5,0.5,6.9,1.1,10,1.9c7.3,1.8,13.5,4.4,18.1,7.6c3.1,2.2,5.4,4.6,6.8,7.5
			c0.8,1.6,1.2,3.4,1.2,5.2c0,1.8-0.4,3.6-1.2,5.2C113.8,71.9,112.7,73.4,111.3,74.8z"/>
	</g>
	<g>
		<path fill="#FFFFFF" d="M50.5,42.8c-0.2,1.6-0.4,3.3-0.4,5.1c2.5-0.4,5.1-0.6,7.8-0.8l-1-4.9C54.7,42.3,52.6,42.5,50.5,42.8z"/>
		<path fill="#FFFFFF" d="M114.6,59.8c-1.4-2.9-3.8-5.3-6.8-7.5c-4.6-3.2-10.8-5.8-18.1-7.6c-3.1-0.8-6.5-1.4-10-1.9
			c-1.5-3.7-3.3-7-5.1-9.9c-2.3-3.6-4.8-6.5-7.5-8.6c-1.3-1.1-2.7-1.9-4.2-2.5c-1.5-0.6-3-0.9-4.5-0.9c-0.7,0-1.4,0.1-2,0.2v0
			c-2.4,0.5-4.4,1.7-6.1,3.5c-2.5,2.7-4.2,6.4-5.4,10.8c-1.2,4.4-1.8,9.6-1.8,15.3c0,5.7,0.6,11.8,1.9,18.2
			c0.9,4.5,2.1,8.8,3.4,12.8c-6.3-1-11.9-2.6-16.5-4.5c-4.2-1.8-7.4-3.9-9.6-6c-1.1-1.1-1.8-2.1-2.3-3.2c-0.5-1-0.7-2-0.7-3.1h0
			c0-1,0.2-2,0.7-3.1c0.9-1.8,2.6-3.8,5.2-5.6c3.8-2.7,9.3-5,15.9-6.7c0-1.8,0.1-3.5,0.3-5.2c-4.2,1-8,2.2-11.5,3.7
			c-4.6,2-8.4,4.3-11.2,7.1c-1.4,1.4-2.5,2.9-3.3,4.5c-0.8,1.6-1.2,3.4-1.2,5.2c0,1.8,0.4,3.6,1.2,5.2c1.4,2.9,3.8,5.3,6.8,7.5
			c4.6,3.2,10.8,5.8,18.1,7.6c3.1,0.8,6.5,1.4,10,1.9c1.5,3.7,3.3,7,5.1,9.9c2.3,3.6,4.8,6.5,7.5,8.6c1.3,1.1,2.7,1.9,4.2,2.5
			c1.5,0.6,3,0.9,4.5,0.9c0.7,0,1.3-0.1,2-0.2l0,0c2.4-0.5,4.4-1.7,6.1-3.5c2.5-2.7,4.2-6.4,5.4-10.8c0.5-2,0.9-4.2,1.2-6.5
			c-0.6,0.1-1.2,0.3-1.8,0.4c-1.1,0.2-2.2,0.4-3.3,0.5c-0.5,3-1.2,5.7-2.1,8c-0.9,2.2-1.9,3.9-3,5c-0.6,0.7-1.3,1.2-2,1.5l-2.7-13.5
			c-1,0.1-2,0.1-3,0.1l2.8,14c-0.7-0.1-1.4-0.2-2.2-0.5c-1.7-0.7-3.5-2-5.4-4c-2.6-2.8-5.2-6.8-7.5-11.7C59,88,62,88.1,65,88.1
			c13.6,0,26-2.3,35.2-6.2c4.6-2,8.4-4.3,11.2-7.1c1.4-1.4,2.5-2.9,3.3-4.5c0.8-1.6,1.2-3.4,1.2-5.2
			C115.8,63.2,115.4,61.4,114.6,59.8z M110.1,68.1c-0.9,1.8-2.6,3.8-5.2,5.6c-3.9,2.7-9.6,5.1-16.4,6.8c-6.9,1.7-14.9,2.7-23.5,2.7
			c-3.8,0-7.5-0.2-11.1-0.6c-1.7-4.4-3.1-9.3-4.1-14.5l0,0C48.6,61.9,48,56.1,48,50.8c0-7.1,1-13.3,2.8-17.7c0.9-2.2,1.9-3.9,3-5
			c0.7-0.7,1.3-1.2,2-1.5l7.7,38.7l3.1,15.8c1,0,2,0,3-0.1l-3.2-16.3L58.8,26c0.7,0.1,1.4,0.2,2.2,0.5c1.6,0.7,3.5,2,5.4,4
			c2.6,2.8,5.2,6.8,7.5,11.7C71,42,68,41.9,65,41.9c-0.3,0-0.7,0-1,0l1,5c3.8,0,7.5,0.2,11.1,0.6c1.7,4.4,3.1,9.3,4.1,14.5
			c1.2,6.1,1.8,11.9,1.8,17.3c0,0.2,0,0.3,0,0.5c1.2-0.2,2.3-0.4,3.4-0.6c0.5-0.1,1-0.2,1.6-0.3c0-5.5-0.6-11.5-1.9-17.7
			c-0.9-4.5-2.1-8.8-3.4-12.8c6.3,1,11.9,2.6,16.5,4.5c4.2,1.8,7.4,3.9,9.6,6c1.1,1.1,1.8,2.1,2.3,3.2c0.5,1,0.7,2,0.7,3.1
			C110.8,66,110.6,67,110.1,68.1z"/>
	</g>
</g>
</svg>
