<?xml version="1.0" encoding="utf-8"?>
<!-- Generator: Adobe Illustrator 22.0.1, SVG Export Plug-In . SVG Version: 6.00 Build 0)  -->
<svg version="1.1" id="Layer_1" xmlns="http://www.w3.org/2000/svg" xmlns:xlink="http://www.w3.org/1999/xlink" x="0px" y="0px"
	 viewBox="0 0 130 130" style="enable-background:new 0 0 130 130;" xml:space="preserve">
<g id="Layer_1_1_">
</g>
<g id="Layer_2_1_">
	<path fill="#000000" d="M65,8.9C34,8.9,8.9,34,8.9,65c0,31,25.1,56.1,56.1,56.1c31,0,56.1-25.1,56.1-56.1C121.1,34,96,8.9,65,8.9z M46.8,38.4
		c1.1-4,2.6-7.3,4.9-9.7c1.5-1.6,3.4-2.7,5.5-3.1v0c0.6-0.1,1.2-0.2,1.8-0.2c1.4,0,2.8,0.3,4.1,0.8c1.3,0.5,2.6,1.3,3.8,2.3
		c2.4,1.9,4.7,4.5,6.7,7.8c1.7,2.6,3.2,5.6,4.6,8.9c0.1,0,0.2,0,0.3,0.1l-4.1,4.1c-3-0.3-6.2-0.5-9.5-0.5l-0.9-4.5
		c0.3,0,0.6,0,0.9,0c2.7,0,5.4,0.1,8,0.3c-2.1-4.4-4.4-8.1-6.8-10.6c-1.7-1.8-3.4-3-4.8-3.6c-0.7-0.3-1.3-0.4-1.9-0.5l5.7,28.7
		l-2.3,2.3l-6-30.4c-0.6,0.3-1.2,0.7-1.8,1.4c-1,1-1.9,2.6-2.7,4.5c-1.6,3.9-2.5,9.5-2.5,15.9c0,4.8,0.5,10.1,1.6,15.5l0,0
		c0.3,1.3,0.5,2.5,0.8,3.8l-3.7,3.7c-0.6-2.1-1.1-4.3-1.6-6.6c-1.1-5.7-1.7-11.3-1.7-16.4C45.2,47,45.8,42.4,46.8,38.4z M58.6,48.9
		c-2.4,0.2-4.8,0.4-7,0.7c0.1-1.6,0.2-3.1,0.4-4.6c1.9-0.2,3.8-0.4,5.8-0.6L58.6,48.9z M20.4,69.7c-0.7-1.5-1.1-3.1-1.1-4.7
		c0-1.6,0.4-3.2,1.1-4.7c0.7-1.5,1.7-2.8,3-4.1c2.5-2.5,5.9-4.6,10-6.4c3.1-1.3,6.5-2.4,10.3-3.3c-0.1,1.5-0.2,3.1-0.2,4.7
		c-6,1.5-11,3.6-14.4,6c-2.3,1.6-3.9,3.4-4.7,5c-0.4,0.9-0.7,1.8-0.7,2.8h0c0,0.9,0.2,1.8,0.7,2.8c0.5,0.9,1.1,1.9,2.1,2.9
		c1.9,1.9,4.9,3.8,8.6,5.4c2.8,1.2,5.9,2.2,9.4,3l-3.7,3.7c-5.7-1.6-10.6-3.7-14.4-6.3C23.8,74.5,21.6,72.3,20.4,69.7z M32.8,100.3
		c-0.4,0-0.8-0.1-1.1-0.4l-1.7-1.7c-0.6-0.6-0.6-1.6,0-2.2l66-66c0.3-0.3,0.7-0.4,1.1-0.4s0.8,0.1,1.1,0.4l1.7,1.7
		c0.6,0.6,0.6,1.6,0,2.2l-66,66C33.6,100.2,33.2,100.3,32.8,100.3z M78.7,62.3c-0.3-1.3-0.5-2.5-0.8-3.8l3.7-3.7
		c0.6,2.1,1.1,4.3,1.6,6.6c1.1,5.6,1.6,11,1.7,15.9c-0.5,0.1-0.9,0.2-1.4,0.3c-1,0.2-2,0.4-3.1,0.6c0-0.1,0-0.3,0-0.4
		C80.3,73,79.8,67.8,78.7,62.3z M69.3,79.4c-0.9,0-1.8,0.1-2.7,0.1l-1.6-8.1l2.3-2.3L69.3,79.4z M106.7,73.8
		c-2.5,2.5-5.9,4.6-10,6.4c-8.2,3.5-19.4,5.6-31.6,5.6c-2.7,0-5.4-0.1-8-0.3c2.1,4.4,4.4,8.1,6.8,10.6c1.7,1.8,3.4,3,4.8,3.6
		c0.7,0.3,1.4,0.4,2,0.5l-2.5-12.6c0.9,0,1.8-0.1,2.7-0.1l2.4,12.2c0.6-0.3,1.2-0.7,1.8-1.3c1-1,1.9-2.6,2.7-4.5
		c0.8-2,1.4-4.4,1.9-7.2c1-0.1,2-0.3,3-0.5c0.6-0.1,1.1-0.2,1.6-0.3c-0.3,2.1-0.6,4.1-1.1,5.9c-1.1,4-2.6,7.3-4.9,9.7
		c-1.5,1.6-3.4,2.7-5.5,3.1l0,0c-0.6,0.1-1.2,0.2-1.8,0.2c-1.4,0-2.8-0.3-4.1-0.8c-1.3-0.5-2.6-1.3-3.8-2.3
		c-2.4-1.9-4.7-4.5-6.7-7.8c-1.7-2.6-3.2-5.6-4.6-8.9c-0.1,0-0.2,0-0.4-0.1l4.1-4.1c3,0.3,6.2,0.5,9.5,0.5c7.7,0,14.9-0.9,21.1-2.4
		c6.2-1.5,11.3-3.7,14.8-6.1c2.3-1.6,3.9-3.4,4.7-5c0.4-0.9,0.7-1.8,0.7-2.8c0-0.9-0.2-1.8-0.7-2.8c-0.4-0.9-1.1-1.9-2.1-2.9
		c-1.9-1.9-4.9-3.8-8.6-5.4c-2.8-1.2-6-2.2-9.5-3l3.7-3.7c5.7,1.6,10.6,3.7,14.4,6.3c2.8,1.9,4.9,4.2,6.1,6.7
		c0.7,1.5,1.1,3.1,1.1,4.7c0,1.6-0.4,3.2-1.1,4.7C108.9,71.2,107.9,72.6,106.7,73.8z"/>
	<g>
		<path fill="#FFFFFF" d="M51.6,49.6c2.3-0.3,4.6-0.6,7-0.7l-0.9-4.5c-2,0.1-3.9,0.3-5.8,0.6C51.8,46.5,51.7,48,51.6,49.6z"/>
		<path fill="#FFFFFF" d="M99.9,31.8l-1.7-1.7c-0.3-0.3-0.7-0.4-1.1-0.4s-0.8,0.1-1.1,0.4l-66,66c-0.6,0.6-0.6,1.6,0,2.2l1.7,1.7
			c0.3,0.3,0.7,0.4,1.1,0.4c0.4,0,0.8-0.1,1.1-0.4l66-66C100.5,33.3,100.5,32.4,99.9,31.8z"/>
		<path fill="#FFFFFF" d="M66.5,79.5c0.9,0,1.8,0,2.7-0.1l-2-10.3l-2.3,2.3L66.5,79.5z"/>
		<path fill="#FFFFFF" d="M83.4,77.7c0.5-0.1,0.9-0.2,1.4-0.3c0-5-0.6-10.4-1.7-15.9c-0.4-2.3-1-4.5-1.6-6.6l-3.7,3.7
			c0.3,1.2,0.6,2.5,0.8,3.8c1.1,5.5,1.6,10.7,1.6,15.5c0,0.2,0,0.3,0,0.4C81.3,78.1,82.4,77.9,83.4,77.7z"/>
		<path fill="#FFFFFF" d="M48.5,75.2l3.7-3.7c-0.3-1.2-0.6-2.5-0.8-3.8l0,0c-1.1-5.5-1.6-10.7-1.6-15.5c0-6.4,0.9-12,2.5-15.9
			c0.8-2,1.7-3.5,2.7-4.5c0.6-0.6,1.2-1.1,1.8-1.4l6,30.4l2.3-2.3l-5.7-28.7c0.6,0,1.3,0.2,1.9,0.5c1.5,0.6,3.2,1.8,4.8,3.6
			c2.4,2.5,4.7,6.1,6.8,10.6c-2.6-0.2-5.3-0.3-8-0.3c-0.3,0-0.6,0-0.9,0l0.9,4.5c3.3,0,6.4,0.2,9.5,0.5l4.1-4.1
			c-0.1,0-0.2,0-0.3-0.1c-1.4-3.3-2.9-6.3-4.6-8.9c-2.1-3.2-4.3-5.9-6.7-7.8c-1.2-1-2.5-1.7-3.8-2.3c-1.3-0.5-2.7-0.8-4.1-0.8
			c-0.6,0-1.2,0.1-1.8,0.2v0c-2.1,0.4-4,1.6-5.5,3.1c-2.3,2.4-3.8,5.7-4.9,9.7c-1.1,4-1.6,8.7-1.6,13.8c0,5.1,0.5,10.7,1.7,16.4
			C47.4,70.8,47.9,73,48.5,75.2z"/>
		<path fill="#FFFFFF" d="M44.6,79.1c-3.5-0.8-6.7-1.8-9.4-3c-3.7-1.6-6.7-3.5-8.6-5.4c-1-1-1.7-1.9-2.1-2.9c-0.4-0.9-0.7-1.8-0.7-2.8
			h0c0-0.9,0.2-1.8,0.7-2.8c0.8-1.6,2.3-3.4,4.7-5c3.4-2.4,8.4-4.5,14.4-6c0-1.6,0.1-3.2,0.2-4.7c-3.8,0.9-7.2,2-10.3,3.3
			c-4.1,1.8-7.5,3.9-10,6.4c-1.2,1.3-2.3,2.6-3,4.1c-0.7,1.5-1.1,3.1-1.1,4.7c0,1.6,0.4,3.2,1.1,4.7c1.2,2.6,3.4,4.8,6.2,6.7
			c3.7,2.6,8.6,4.7,14.4,6.3L44.6,79.1z"/>
		<path fill="#FFFFFF" d="M109.7,60.3c-1.2-2.6-3.4-4.8-6.1-6.7c-3.7-2.6-8.6-4.7-14.4-6.3l-3.7,3.7c3.5,0.8,6.7,1.8,9.5,3
			c3.7,1.6,6.7,3.5,8.6,5.4c1,1,1.7,1.9,2.1,2.9c0.4,0.9,0.7,1.8,0.7,2.8c0,0.9-0.2,1.8-0.7,2.8c-0.8,1.6-2.3,3.4-4.7,5
			c-3.5,2.5-8.6,4.6-14.8,6.1c-6.2,1.5-13.4,2.4-21.1,2.4c-3.3,0-6.4-0.2-9.5-0.5l-4.1,4.1c0.1,0,0.2,0,0.4,0.1
			c1.4,3.3,2.9,6.3,4.6,8.9c2.1,3.2,4.3,5.9,6.7,7.8c1.2,1,2.5,1.7,3.8,2.3c1.3,0.5,2.7,0.8,4.1,0.8c0.6,0,1.2-0.1,1.8-0.2l0,0
			c2.1-0.4,4-1.6,5.5-3.1c2.3-2.4,3.8-5.7,4.9-9.7c0.5-1.8,0.9-3.8,1.1-5.9c-0.5,0.1-1.1,0.2-1.6,0.3c-1,0.2-2,0.3-3,0.5
			c-0.4,2.7-1.1,5.2-1.9,7.2c-0.8,2-1.7,3.5-2.7,4.5c-0.6,0.6-1.2,1-1.8,1.3l-2.4-12.2c-0.9,0-1.8,0.1-2.7,0.1l2.5,12.6
			c-0.6,0-1.3-0.2-2-0.5c-1.5-0.6-3.2-1.8-4.8-3.6c-2.4-2.5-4.7-6.1-6.8-10.6c2.6,0.2,5.3,0.3,8,0.3c12.3,0,23.4-2.1,31.6-5.6
			c4.1-1.8,7.5-3.9,10-6.4c1.2-1.3,2.3-2.6,3-4.1c0.7-1.5,1.1-3.1,1.1-4.7C110.8,63.4,110.4,61.8,109.7,60.3z"/>
	</g>
</g>
</svg>
