<?xml version="1.0" encoding="utf-8"?>
<!-- Generator: Adobe Illustrator 16.0.0, SVG Export Plug-In . SVG Version: 6.00 Build 0)  -->
<!DOCTYPE svg PUBLIC "-//W3C//DTD SVG 1.1 Tiny//EN" "http://www.w3.org/Graphics/SVG/1.1/DTD/svg11-tiny.dtd" [
	<!ENTITY ns_flows "http://ns.adobe.com/Flows/1.0/">
	<!ENTITY ns_extend "http://ns.adobe.com/Extensibility/1.0/">
	<!ENTITY ns_ai "http://ns.adobe.com/AdobeIllustrator/10.0/">
	<!ENTITY ns_graphs "http://ns.adobe.com/Graphs/1.0/">
]>
<svg version="1.1" baseProfile="tiny" xmlns:x="&ns_extend;" xmlns:i="&ns_ai;" xmlns:graph="&ns_graphs;"
	 xmlns="http://www.w3.org/2000/svg" xmlns:xlink="http://www.w3.org/1999/xlink" xmlns:a="http://ns.adobe.com/AdobeSVGViewerExtensions/3.0/"
	 x="0px" y="0px" width="130px" height="130px" viewBox="0 0 130 130" xml:space="preserve">
<g id="Layer_1">
</g>
<g id="Layer_2">
	<g>
		<path fill="#FFFFFF" d="M94.046,64.999c0-13.074-8.685-24.155-20.587-27.786c2.719-6.457,6.857-12.832,6.857-12.832
			s-2.416-5.33-7.585-10.246c-4.81-4.578-8.05-5.941-8.476-6.108l0.001-0.019c0,0-0.012,0.004-0.025,0.011
			c-0.014-0.006-0.024-0.009-0.024-0.009l0.001,0.019c-0.422,0.175-3.634,1.604-8.35,6.279c-5.065,5.021-7.372,10.399-7.372,10.399
			s4.316,6.361,7.166,12.798c-6.739,2.298-12.369,7.005-15.86,13.093c-2.845-1.183-5.468-2.094-7.645-2.646
			c0.254-3.956-2.86-8.457-7.357-10.074c-4.987-1.795-10.195,1.338-11.522,6.503c-1.328,5.165,1.705,10.386,6.899,11.226
			c4.497,0.729,9.202-1.444,11.11-4.772c1.873,0.47,4.313,1.281,7.153,2.449c-1.587,3.587-2.477,7.549-2.477,11.716
			c0,16.017,13.03,29.047,29.046,29.047S94.046,81.016,94.046,64.999z M40.963,64.653c0.047-3.315,0.768-6.47,2.032-9.333
			c0.856,0.41,1.731,0.842,2.629,1.305l1.375-2.666c-0.88-0.454-1.756-0.889-2.624-1.306c4.207-7.003,11.877-11.7,20.625-11.7
			c13.259,0,24.046,10.787,24.046,24.046c0,11.636-8.308,21.366-19.303,23.575c0.097-0.199,0.181-0.393,0.245-0.57
			c2.29-6.27-3.427-8.98-7.209-10.774c-1.886-0.895-3.835-1.819-5.072-2.988c-1.273-1.204-2.43-2.914-3.547-4.568
			c-2.283-3.38-4.644-6.874-8.608-6.874c-0.972,0-1.964,0.229-2.95,0.679C42.076,63.718,41.499,64.091,40.963,64.653z M49.597,83.41
			c-3.645-2.921-6.003-9.919-5.525-13.765c0.13-1.044,0.435-1.54,0.608-1.62c0.33-0.15,0.623-0.227,0.872-0.227
			c1.309,0,2.985,2.482,4.465,4.673c1.27,1.879,2.582,3.821,4.256,5.403c1.812,1.714,4.23,2.86,6.364,3.872
			c4.748,2.252,5.235,2.952,4.654,4.541c-0.412,1.13-2.823,1.218-3.553,1.218C57.861,87.506,52.414,85.668,49.597,83.41z"/>
		<g>
			<path fill="#000000" d="M65,40.953c-8.748,0-16.418,4.697-20.625,11.7c0.868,0.417,1.744,0.852,2.624,1.306l-1.375,2.666
				c-0.897-0.463-1.772-0.895-2.629-1.305c-1.265,2.863-1.985,6.018-2.032,9.333c0.536-0.562,1.113-0.936,1.639-1.176
				c0.986-0.45,1.979-0.679,2.95-0.679c3.965,0,6.325,3.494,8.608,6.874c1.117,1.654,2.273,3.364,3.547,4.568
				c1.237,1.169,3.187,2.094,5.072,2.988c3.782,1.794,9.499,4.505,7.209,10.774c-0.064,0.178-0.148,0.371-0.245,0.57
				c10.995-2.209,19.303-11.939,19.303-23.575C89.046,51.74,78.259,40.953,65,40.953z"/>
			<path fill="#000000" d="M65,2.638c-34.442,0-62.362,27.922-62.362,62.363S30.558,127.362,65,127.362c34.441,0,62.362-27.92,62.362-62.361
				S99.441,2.638,65,2.638z M65,94.046c-16.016,0-29.046-13.03-29.046-29.047c0-4.167,0.89-8.129,2.477-11.716
				c-2.84-1.168-5.28-1.979-7.153-2.449c-1.908,3.328-6.613,5.501-11.11,4.772c-5.194-0.84-8.228-6.061-6.899-11.226
				c1.327-5.165,6.535-8.298,11.522-6.503c4.497,1.617,7.611,6.118,7.357,10.074c2.177,0.552,4.8,1.463,7.645,2.646
				c3.491-6.088,9.121-10.795,15.86-13.093c-2.85-6.437-7.166-12.798-7.166-12.798s2.307-5.378,7.372-10.399
				c4.716-4.675,7.928-6.104,8.35-6.279L64.207,8.01c0,0,0.011,0.003,0.024,0.009c0.014-0.007,0.025-0.011,0.025-0.011l-0.001,0.019
				c0.426,0.167,3.666,1.53,8.476,6.108c5.169,4.916,7.585,10.246,7.585,10.246s-4.139,6.375-6.857,12.832
				c11.902,3.631,20.587,14.712,20.587,27.786C94.046,81.016,81.016,94.046,65,94.046z"/>
			<path fill="#000000" d="M60.637,81.747c-2.134-1.012-4.552-2.158-6.364-3.872c-1.674-1.582-2.986-3.524-4.256-5.403
				c-1.479-2.19-3.156-4.673-4.465-4.673c-0.249,0-0.542,0.076-0.872,0.227c-0.174,0.08-0.479,0.576-0.608,1.62
				c-0.478,3.846,1.881,10.844,5.525,13.765c2.817,2.258,8.265,4.096,12.142,4.096c0.729,0,3.141-0.088,3.553-1.218
				C65.872,84.699,65.385,83.999,60.637,81.747z"/>
		</g>
	</g>
</g>
</svg>
