<?xml version="1.0" encoding="utf-8"?>
<!-- Generator: Adobe Illustrator 16.0.0, SVG Export Plug-In . SVG Version: 6.00 Build 0)  -->
<!DOCTYPE svg PUBLIC "-//W3C//DTD SVG 1.1 Tiny//EN" "http://www.w3.org/Graphics/SVG/1.1/DTD/svg11-tiny.dtd" [
	<!ENTITY ns_flows "http://ns.adobe.com/Flows/1.0/">
	<!ENTITY ns_extend "http://ns.adobe.com/Extensibility/1.0/">
	<!ENTITY ns_ai "http://ns.adobe.com/AdobeIllustrator/10.0/">
	<!ENTITY ns_graphs "http://ns.adobe.com/Graphs/1.0/">
]>
<svg version="1.1" baseProfile="tiny" xmlns:x="&ns_extend;" xmlns:i="&ns_ai;" xmlns:graph="&ns_graphs;"
	 xmlns="http://www.w3.org/2000/svg" xmlns:xlink="http://www.w3.org/1999/xlink" xmlns:a="http://ns.adobe.com/AdobeSVGViewerExtensions/3.0/"
	 x="0px" y="0px" width="130px" height="130px" viewBox="0 0 130 130" xml:space="preserve">
<g id="Layer_1">
</g>
<g id="Layer_2">
	<g>
		<path fill="#FFFFFF" d="M91.1,65c0-11.8-7.8-21.7-18.5-25c2.4-5.8,6.2-11.5,6.2-11.5s-2.2-4.8-6.8-9.2c-4.3-4.1-7.2-5.3-7.6-5.5l0,0
			c0,0,0,0,0,0c0,0,0,0,0,0l0,0c-0.4,0.2-3.3,1.4-7.5,5.6c-4.6,4.5-6.6,9.4-6.6,9.4s3.9,5.7,6.4,11.5c-6.1,2.1-11.1,6.3-14.3,11.8
			c-2.6-1.1-4.9-1.9-6.9-2.4c0.2-3.6-2.6-7.6-6.6-9.1c-4.5-1.6-9.2,1.2-10.4,5.9c-1.2,4.6,1.5,9.3,6.2,10.1c4,0.7,8.3-1.3,10-4.3
			c1.7,0.4,3.9,1.2,6.4,2.2c-1.4,3.2-2.2,6.8-2.2,10.5c0,14.4,11.7,26.1,26.1,26.1S91.1,79.4,91.1,65z M43.4,64.7
			c0-3,0.7-5.8,1.8-8.4c0.8,0.4,1.6,0.8,2.4,1.2l1.2-2.4c-0.8-0.4-1.6-0.8-2.4-1.2c3.8-6.3,10.7-10.5,18.6-10.5
			c11.9,0,21.6,9.7,21.6,21.6c0,10.5-7.5,19.2-17.4,21.2c0.1-0.2,0.2-0.4,0.2-0.5c2.1-5.6-3.1-8.1-6.5-9.7c-1.7-0.8-3.4-1.6-4.6-2.7
			c-1.1-1.1-2.2-2.6-3.2-4.1c-2.1-3-4.2-6.2-7.7-6.2c-0.9,0-1.8,0.2-2.7,0.6C44.4,63.8,43.9,64.2,43.4,64.7z M51.1,81.6
			c-3.3-2.6-5.4-8.9-5-12.4c0.1-0.9,0.4-1.4,0.5-1.5c0.3-0.1,0.6-0.2,0.8-0.2c1.2,0,2.7,2.2,4,4.2c1.1,1.7,2.3,3.4,3.8,4.9
			c1.6,1.5,3.8,2.6,5.7,3.5c4.3,2,4.7,2.7,4.2,4.1c-0.4,1-2.5,1.1-3.2,1.1C58.6,85.2,53.7,83.6,51.1,81.6z"/>
		<g>
			<path fill="#000000" d="M65,43.4c-7.9,0-14.8,4.2-18.6,10.5c0.8,0.4,1.6,0.8,2.4,1.2l-1.2,2.4c-0.8-0.4-1.6-0.8-2.4-1.2
				c-1.1,2.6-1.8,5.4-1.8,8.4c0.5-0.5,1-0.8,1.5-1.1c0.9-0.4,1.8-0.6,2.7-0.6c3.6,0,5.7,3.1,7.7,6.2c1,1.5,2,3,3.2,4.1
				c1.1,1.1,2.9,1.9,4.6,2.7c3.4,1.6,8.5,4.1,6.5,9.7c-0.1,0.2-0.1,0.3-0.2,0.5c9.9-2,17.4-10.7,17.4-21.2
				C86.6,53.1,76.9,43.4,65,43.4z"/>
			<path fill="#000000" d="M65,8.9C34,8.9,8.9,34,8.9,65S34,121.1,65,121.1c31,0,56.1-25.1,56.1-56.1S96,8.9,65,8.9z M65,91.1
				c-14.4,0-26.1-11.7-26.1-26.1c0-3.7,0.8-7.3,2.2-10.5c-2.6-1.1-4.7-1.8-6.4-2.2c-1.7,3-5.9,4.9-10,4.3c-4.7-0.8-7.4-5.5-6.2-10.1
				c1.2-4.6,5.9-7.5,10.4-5.9c4,1.5,6.8,5.5,6.6,9.1c2,0.5,4.3,1.3,6.9,2.4c3.1-5.5,8.2-9.7,14.3-11.8c-2.6-5.8-6.4-11.5-6.4-11.5
				s2.1-4.8,6.6-9.4c4.2-4.2,7.1-5.5,7.5-5.6l0,0c0,0,0,0,0,0c0,0,0,0,0,0l0,0c0.4,0.2,3.3,1.4,7.6,5.5c4.6,4.4,6.8,9.2,6.8,9.2
				s-3.7,5.7-6.2,11.5c10.7,3.3,18.5,13.2,18.5,25C91.1,79.4,79.4,91.1,65,91.1z"/>
			<path fill="#000000" d="M61.1,80.1c-1.9-0.9-4.1-1.9-5.7-3.5c-1.5-1.4-2.7-3.2-3.8-4.9c-1.3-2-2.8-4.2-4-4.2c-0.2,0-0.5,0.1-0.8,0.2
				c-0.2,0.1-0.4,0.5-0.5,1.5c-0.4,3.5,1.7,9.8,5,12.4c2.5,2,7.4,3.7,10.9,3.7c0.7,0,2.8-0.1,3.2-1.1C65.8,82.7,65.3,82.1,61.1,80.1
				z"/>
		</g>
	</g>
</g>
</svg>
