<?xml version="1.0" encoding="utf-8"?>
<!-- Generator: Adobe Illustrator 19.1.0, SVG Export Plug-In . SVG Version: 6.00 Build 0)  -->
<svg version="1.1" baseProfile="tiny" id="Layer_1" xmlns="http://www.w3.org/2000/svg" xmlns:xlink="http://www.w3.org/1999/xlink"
	 x="0px" y="0px" viewBox="-240 332 130 130" xml:space="preserve">
<g id="Layer_1_1_">
	<path fill="#000000" d="M-118.9,397c0-31-25.1-56.1-56.1-56.1c-31,0-56.1,25.1-56.1,56.1s25.1,56.1,56.1,56.1
		C-144,453.1-118.9,428-118.9,397z M-209.7,406.6c-1.4,0-2.5-1.1-2.5-2.4v-14.3c0-1.3,1.1-2.4,2.5-2.4h14.3c1.4,0,2.5,1.1,2.5,2.4
		v14.3c0,1.3-1.1,2.4-2.5,2.4L-209.7,406.6L-209.7,406.6z M-182.1,406.6c-1.4,0-2.5-1.1-2.5-2.4v-14.3c0-1.3,1.1-2.4,2.5-2.4h14.2
		c1.4,0,2.5,1.1,2.5,2.4v14.3c0,1.3-1.1,2.4-2.5,2.4L-182.1,406.6L-182.1,406.6z M-154.5,406.6c-1.4,0-2.5-1.1-2.5-2.4v-14.3
		c0-1.3,1.1-2.4,2.5-2.4h14.2c1.4,0,2.5,1.1,2.5,2.4v14.3c0,1.3-1.1,2.4-2.5,2.4L-154.5,406.6z"/>
</g>
<g id="Layer_2">
	<g>
		<g>
			<path fill="#FFFFFF" d="M-154.5,406.6c-1.4,0-2.5-1.1-2.5-2.4v-14.3c0-1.3,1.1-2.4,2.5-2.4h14.2c1.4,0,2.5,1.1,2.5,2.4v14.3
				c0,1.3-1.1,2.4-2.5,2.4L-154.5,406.6z"/>
			<path fill="#FFFFFF" d="M-182.1,406.6c-1.4,0-2.5-1.1-2.5-2.4v-14.3c0-1.3,1.1-2.4,2.5-2.4h14.2c1.4,0,2.5,1.1,2.5,2.4v14.3
				c0,1.3-1.1,2.4-2.5,2.4L-182.1,406.6L-182.1,406.6z"/>
			<path fill="#FFFFFF" d="M-209.7,406.6c-1.4,0-2.5-1.1-2.5-2.4v-14.3c0-1.3,1.1-2.4,2.5-2.4h14.3c1.4,0,2.5,1.1,2.5,2.4v14.3
				c0,1.3-1.1,2.4-2.5,2.4L-209.7,406.6L-209.7,406.6z"/>
		</g>
	</g>
</g>
</svg>
