<?xml version="1.0" encoding="utf-8"?>
<!-- Generator: Adobe Illustrator 19.1.0, SVG Export Plug-In . SVG Version: 6.00 Build 0)  -->
<svg version="1.1" baseProfile="tiny" id="Layer_1" xmlns="http://www.w3.org/2000/svg" xmlns:xlink="http://www.w3.org/1999/xlink"
	 x="0px" y="0px" viewBox="-240 332 130 130" xml:space="preserve">
<g id="Layer_1_1_">
	<path fill="#000000" d="M-112.6,397c0-34.4-27.9-62.4-62.4-62.4c-34.4,0-62.4,27.9-62.4,62.4s27.9,62.4,62.4,62.4
		C-140.6,459.4-112.6,431.4-112.6,397z M-213.6,407.6c-1.5,0-2.7-1.2-2.7-2.7v-15.9c0-1.5,1.2-2.7,2.7-2.7h15.8
		c1.5,0,2.7,1.2,2.7,2.7v15.9c0,1.5-1.2,2.7-2.7,2.7L-213.6,407.6L-213.6,407.6z M-182.9,407.6c-1.5,0-2.7-1.2-2.7-2.7v-15.9
		c0-1.5,1.2-2.7,2.7-2.7h15.8c1.5,0,2.7,1.2,2.7,2.7v15.9c0,1.5-1.2,2.7-2.7,2.7L-182.9,407.6L-182.9,407.6z M-152.2,407.6
		c-1.5,0-2.7-1.2-2.7-2.7v-15.9c0-1.5,1.2-2.7,2.7-2.7h15.8c1.5,0,2.7,1.2,2.7,2.7v15.9c0,1.5-1.2,2.7-2.7,2.7L-152.2,407.6z"/>
</g>
<g id="Layer_2">
	<g>
		<g>
			<path fill="#FFFFFF" d="M-152.2,407.6c-1.5,0-2.7-1.2-2.7-2.7v-15.9c0-1.5,1.2-2.7,2.7-2.7h15.8c1.5,0,2.7,1.2,2.7,2.7v15.9
				c0,1.5-1.2,2.7-2.7,2.7L-152.2,407.6z"/>
			<path fill="#FFFFFF" d="M-182.9,407.6c-1.5,0-2.7-1.2-2.7-2.7v-15.9c0-1.5,1.2-2.7,2.7-2.7h15.8c1.5,0,2.7,1.2,2.7,2.7v15.9
				c0,1.5-1.2,2.7-2.7,2.7L-182.9,407.6L-182.9,407.6z"/>
			<path fill="#FFFFFF" d="M-213.6,407.6c-1.5,0-2.7-1.2-2.7-2.7v-15.9c0-1.5,1.2-2.7,2.7-2.7h15.8c1.5,0,2.7,1.2,2.7,2.7v15.9
				c0,1.5-1.2,2.7-2.7,2.7L-213.6,407.6L-213.6,407.6z"/>
		</g>
	</g>
</g>
</svg>
