<?xml version="1.0" encoding="iso-8859-1"?>
<!-- Generator: Adobe Illustrator 18.0.0, SVG Export Plug-In . SVG Version: 6.00 Build 0)  -->
<!DOCTYPE svg PUBLIC "-//W3C//DTD SVG 1.1//EN" "http://www.w3.org/Graphics/SVG/1.1/DTD/svg11.dtd">
<svg xmlns="http://www.w3.org/2000/svg" xmlns:xlink="http://www.w3.org/1999/xlink" version="1.1" id="Capa_1" x="0px" y="0px" viewBox="0 0 390 390" style="enable-background:new 0 0 390 390;" xml:space="preserve" width="512px" height="512px">
<g>
	<circle cx="127" cy="245.165" r="40" fill="#FFFFFF"/>
	<path d="M358.272,108.489H178.65l149.273-50.031c4.918,4.075,11.227,6.527,18.098,6.527c15.667,0,28.413-12.746,28.413-28.413   S361.688,8.159,346.021,8.159c-13.41,0-24.673,9.342-27.641,21.857L84.247,108.489h-52.52C14.206,108.489,0,122.687,0,140.214   v209.902c0,17.527,14.206,31.725,31.728,31.725h326.545c17.522,0,31.728-14.197,31.728-31.725v-27.874v-21.577v-39v-33v-39v-28.756   v-20.695C390,122.687,375.794,108.489,358.272,108.489z M127,321.661c-42.248,0-76.496-34.248-76.496-76.496   c0-42.248,34.248-76.496,76.496-76.496c42.248,0,76.496,34.248,76.496,76.496C203.496,287.413,169.248,321.661,127,321.661z    M348.744,300.665H271.5c-10.77,0-19.5-8.73-19.5-19.5s8.73-19.5,19.5-19.5h77.244V300.665z M348.744,228.665H271.5   c-10.77,0-19.5-8.73-19.5-19.5s8.73-19.5,19.5-19.5h77.244V228.665z" fill="#FFFFFF"/>
</g>
<g>
</g>
<g>
</g>
<g>
</g>
<g>
</g>
<g>
</g>
<g>
</g>
<g>
</g>
<g>
</g>
<g>
</g>
<g>
</g>
<g>
</g>
<g>
</g>
<g>
</g>
<g>
</g>
<g>
</g>
</svg>
